<?xml version="1.0" encoding="UTF-8"?>
<svg width="48" height="48" viewBox="0 0 48 48" xmlns="http://www.w3.org/2000/svg">
  <path d="M42 24.5c0 1.4-.1 2.5-.4 3.3-.3.8-.6 1.7-1.1 2.7-.2.4-.3.7-.3 1.1 0 .5.3 1 .9 1.5l3.1 2c.4.3.6.7.6 1.1 0 .5-.3.9-.8 1.3-.9.8-1.7 1.6-2.4 2.4-.7.8-1.5 1.7-2.5 2.6-.2.2-.5.4-.9.4-.4 0-.7-.1-1-.3l-3.1-2.1c-.3-.2-.7-.3-1-.3-.4 0-.9.2-1.3.5-1.1.8-2.2 1.4-3.3 1.8-1.1.4-2.3.6-3.7.6-3.1 0-5.7-1-7.6-3.1-1.9-2.1-2.9-4.8-2.9-8.3 0-2.4.5-4.6 1.6-6.5s2.6-3.4 4.6-4.5c2-1.1 4.2-1.6 6.8-1.6 1.1 0 2.3.1 3.5.3 1.2.2 2.4.4 3.7.8v-1.3c0-2.4-.6-4.1-1.7-5.1-1.1-1-3-1.5-5.6-1.5-1.2 0-2.5.1-3.8.4-1.3.3-2.5.6-3.8 1.1-.5.2-1 .3-1.3.4-.3.1-.6.1-.8.1-.7 0-1.1-.5-1.1-1.6v-2.4c0-.8.1-1.4.3-1.7.2-.3.6-.7 1.1-1 1-1 2.3-1.4 3.8-1.9 1.5-.5 3.1-.7 4.8-.7 3.7 0 6.4.8 8.1 2.5 1.7 1.7 2.6 4.2 2.6 7.6v10zm-15.2 5.8c1.3 0 2.5-.2 3.8-.7 1.3-.5 2.5-1.3 3.5-2.5.6-.7 1-1.6 1.3-2.5.3-.9.4-2.1.4-3.4v-1.6c-.9-.2-1.9-.4-2.9-.5-1-.1-2-.2-3-.2-2.5 0-4.4.5-5.6 1.5-1.2 1-1.8 2.4-1.8 4.3 0 1.7.4 3.1 1.3 4 .9.9 2.2 1.3 3.8 1.3h.2v.3zm28.9 3.1c-.7 0-1.2-.1-1.4-.4-.2-.2-.4-.8-.6-1.7l-6.9-22.8c-.2-.9-.3-1.6-.3-1.9 0-.6.3-.9.9-.9h3.5c.7 0 1.2.1 1.4.4.2.2.4.8.6 1.7l4.4 17.3 4.1-17.3c.1-.9.3-1.5.5-1.7.2-.2.7-.4 1.4-.4h2.9c.7 0 1.2.1 1.4.4.2.2.4.8.6 1.7l4.1 17.5 4.5-17.5c.2-.9.4-1.5.6-1.7.2-.2.7-.4 1.4-.4h3.4c.6 0 .9.3.9.9 0 .2 0 .4-.1.6-.1.2-.1.5-.2.8l-7 22c-.2.9-.4 1.5-.6 1.7-.2.2-.7.4-1.4.4h-3.1c-.7 0-1.2-.1-1.4-.4-.2-.2-.4-.8-.6-1.8l-4-17-4 17c-.2.9-.4 1.5-.6 1.8-.2.2-.7.4-1.4.4h-3.1l2-1z" fill="#252F3E"/>
  <path d="M24 44c13.5 0 20.5-6.2 20.5-6.2.9-.8.9-2.1.1-2.9 0 0-.1-.1-.1-.1l-1.8-1.2c-.6-.4-1.4-.4-2 .1-3.4 2.7-7.5 4.1-12.1 4.1-4.6 0-8.7-1.4-12.1-4.1-.6-.5-1.4-.5-2-.1l-1.8 1.2c-.9.6-1.1 1.9-.5 2.8 0 0 7 6.4 20.5 6.4H24z" fill="#FF9900"/>
  <path d="M13.1 27.8c0 1.2.4 2.1 1.2 2.9.8.7 1.8 1.1 3.1 1.1 1.3 0 2.3-.4 3.1-1.1.8-.7 1.2-1.7 1.2-2.9 0-1.2-.4-2.1-1.2-2.9-.8-.7-1.8-1.1-3.1-1.1-1.3 0-2.3.4-3.1 1.1-.8.8-1.2 1.7-1.2 2.9zm23.1-4.3c-.8-.9-1.8-1.3-3.2-1.3-1.4 0-2.5.4-3.2 1.3-.8.9-1.1 2-1.1 3.5v6.5c0 .3.1.5.3.7.2.2.4.3.7.3h1.5c.3 0 .5-.1.7-.3.2-.2.3-.4.3-.7v-6.5c0-.8.2-1.4.5-1.8.3-.4.8-.6 1.5-.6s1.2.2 1.5.6c.3.4.5 1 .5 1.8v6.5c0 .3.1.5.3.7.2.2.4.3.7.3h1.5c.3 0 .5-.1.7-.3.2-.2.3-.4.3-.7v-6.5c-.2-1.5-.6-2.7-1.3-3.5z" fill="#FF9900"/>
</svg>